<svg width="530" height="200" viewBox="0 0 530 200" fill="none" xmlns="http://www.w3.org/2000/svg">
<rect width="530" height="200" rx="4" fill="#121212"/>

<path d="M223.295 111V87.7273H238.205V91.2614H227.511V97.5795H237.182V101.114H227.511V111H223.295ZM262.841 99.3636C262.841 101.871 262.371 104.019 261.432 105.807C260.5 107.587 259.227 108.951 257.614 109.898C256.008 110.845 254.186 111.318 252.148 111.318C250.11 111.318 248.284 110.845 246.67 109.898C245.064 108.943 243.792 107.576 242.852 105.795C241.92 104.008 241.455 101.864 241.455 99.3636C241.455 96.8561 241.92 94.7121 242.852 92.9318C243.792 91.1439 245.064 89.7765 246.67 88.8295C248.284 87.8826 250.11 87.4091 252.148 87.4091C254.186 87.4091 256.008 87.8826 257.614 88.8295C259.227 89.7765 260.5 91.1439 261.432 92.9318C262.371 94.7121 262.841 96.8561 262.841 99.3636ZM258.602 99.3636C258.602 97.5985 258.326 96.1098 257.773 94.8977C257.227 93.678 256.47 92.7576 255.5 92.1364C254.53 91.5076 253.413 91.1932 252.148 91.1932C250.883 91.1932 249.765 91.5076 248.795 92.1364C247.826 92.7576 247.064 93.678 246.511 94.8977C245.966 96.1098 245.693 97.5985 245.693 99.3636C245.693 101.129 245.966 102.621 246.511 103.841C247.064 105.053 247.826 105.973 248.795 106.602C249.765 107.223 250.883 107.534 252.148 107.534C253.413 107.534 254.53 107.223 255.5 106.602C256.47 105.973 257.227 105.053 257.773 103.841C258.326 102.621 258.602 101.129 258.602 99.3636ZM264.773 91.2614V87.7273H283.341V91.2614H276.148V111H271.966V91.2614H264.773ZM306.685 99.3636C306.685 101.871 306.215 104.019 305.276 105.807C304.344 107.587 303.071 108.951 301.457 109.898C299.851 110.845 298.029 111.318 295.991 111.318C293.954 111.318 292.128 110.845 290.514 109.898C288.908 108.943 287.635 107.576 286.696 105.795C285.764 104.008 285.298 101.864 285.298 99.3636C285.298 96.8561 285.764 94.7121 286.696 92.9318C287.635 91.1439 288.908 89.7765 290.514 88.8295C292.128 87.8826 293.954 87.4091 295.991 87.4091C298.029 87.4091 299.851 87.8826 301.457 88.8295C303.071 89.7765 304.344 91.1439 305.276 92.9318C306.215 94.7121 306.685 96.8561 306.685 99.3636ZM302.446 99.3636C302.446 97.5985 302.17 96.1098 301.616 94.8977C301.071 93.678 300.313 92.7576 299.344 92.1364C298.374 91.5076 297.257 91.1932 295.991 91.1932C294.726 91.1932 293.609 91.5076 292.639 92.1364C291.67 92.7576 290.908 93.678 290.355 94.8977C289.81 96.1098 289.537 97.5985 289.537 99.3636C289.537 101.129 289.81 102.621 290.355 103.841C290.908 105.053 291.67 105.973 292.639 106.602C293.609 107.223 294.726 107.534 295.991 107.534C297.257 107.534 298.374 107.223 299.344 106.602C300.313 105.973 301.071 105.053 301.616 103.841C302.17 102.621 302.446 101.129 302.446 99.3636Z" fill="rgba(130, 68, 43, 1)"/>
</svg>
