<svg width="164" height="172" viewBox="0 0 164 172" fill="none" xmlns="http://www.w3.org/2000/svg">
<path d="M11.01 157.63C24.49 164.3 42 162.2 55.28 156.26C56.8 155.58 28.65 164.24 12.56 154.9C-2.39999 146.21 3.63001 129.34 15.03 121.62C19.08 118.88 24.2 116.51 29 115.48C32.55 118.85 36.77 121.34 41.88 122.29C45.13 122.9 53.69 123.45 54.08 118.49C54.47 113.51 46.18 112.45 42.99 112.04C38.79 111.51 34.44 111.59 30.18 112.29C25.24 107.05 21.7 99.89 19.2 93.79C10.8 73.27 9.83001 52.39 15 30.84C16.33 25.29 18.25 18.24 20.49 12.99C21.36 10.96 22.56 7.12997 24.42 5.85997C28.42 3.12997 32.85 4.54999 36.66 6.56999C46.42 11.74 52.55 20.95 58.69 29.84C65.37 39.51 71.12 49.84 75.81 60.62C78.72 67.32 81.36 74.34 82.87 81.55C76.51 97.01 69.74 119.66 79.08 118.02C88.42 116.38 88 93.72 85.62 81.43C87.24 77.43 89.06 73.51 91.07 69.7C100.89 51.11 114.55 33.17 134.6 25.18C140.17 22.96 146.4 21.66 152.41 22.21C161.48 23.03 159.28 33.98 157.95 40.11C155.46 51.61 152.16 61.49 147.66 72.33C139.42 92.2 129.52 111.58 116.26 128.58C91.05 133.66 67.15 148.38 53.62 169.15C53.09 169.97 53.54 171.09 54.54 171.21C68.12 172.83 80.37 165.13 90.85 157.38C100.72 150.08 109.44 141.39 117.14 131.84C130.51 129.03 144.3 128.87 158.05 130.81C158.76 130.91 158.92 129.93 158.25 129.73C146.16 126.25 133.1 125.79 120.25 127.84C136.07 106.98 146.95 82.93 156.02 58.49C158.38 52.14 160.81 45.73 162.17 39.08C163.1 34.53 164.4 27.93 162.51 23.39C159.08 15.18 144.95 18.37 138.6 20.36C117.55 26.95 101.26 46.15 90.65 64.66C89.73 66.27 87.33 71.11 84.65 77.25C83.79 73.82 82.72 70.43 81.48 67.12C74.74 49.06 64.77 31.62 52.44 16.79C46.81 10.02 31.35 -6.04 21.89 2.92C17.27 7.29 15.26 15.08 13.41 20.95C10.97 28.67 9.42 36.66 8.77 44.73C7.48 60.74 9.59002 77.05 15.26 92.1C17.91 99.14 21.45 107.01 26.64 113C18.4 115.03 10.75 119.4 5.53001 126.1C-2.44999 136.4 -1.40998 151.48 11.01 157.63ZM99.17 137.38C103.64 135.53 108.18 134.03 112.78 132.86C106.15 140.8 98.77 148.17 90.64 154.56C81.42 161.8 69.44 170.58 57.13 169.02C68.79 155.28 82.33 144.37 99.17 137.38ZM83.56 84.28C83.98 87.51 85.53 109.6 80.36 113.51C77.23 115.88 77.57 105.67 79.33 98.54C81.31 90.49 83.56 84.28 83.56 84.28ZM32.9 114.85C33.25 114.81 33.59 114.76 33.94 114.73C37.07 114.45 40.2 114.53 43.32 115.01C44.42 115.18 50.02 115.98 50.37 117.2C51.04 119.57 48.37 119.53 47.01 119.62C41.45 120.01 36.8 118.06 32.9 114.85Z" fill="rgba(57, 120, 178, 1)"/>
</svg>
